<svg xmlns="http://www.w3.org/2000/svg" viewBox="0 0 1200 675" role="img" aria-labelledby="title desc">
  <title id="title">AI Marketing Automation for Small Businesses</title>
  <desc id="desc">A practical model that moves from delay to input, route, and qualified movement.</desc>
  <rect width="1200" height="675" fill="#f4efe5"/>
  <path d="M0 74H1200M0 148H1200M0 222H1200M0 296H1200M0 370H1200M0 444H1200M0 518H1200M0 592H1200M74 0V675M148 0V675M222 0V675M296 0V675M370 0V675M444 0V675M518 0V675M592 0V675M666 0V675M740 0V675M814 0V675M888 0V675M962 0V675M1036 0V675M1110 0V675" stroke="#d8d0c2" stroke-width="1" opacity=".55"/>
  <rect x="48" y="42" width="1104" height="591" fill="none" stroke="#161616" stroke-width="4"/>
  <text x="80" y="94" font-family="monospace" font-size="18" letter-spacing="4" fill="#161616">AI MARKETING AUTOMATION</text>
  <text x="80" y="185" font-family="Georgia, serif" font-weight="700" font-size="62" fill="#161616">Automate the</text>
  <text x="80" y="252" font-family="Georgia, serif" font-weight="700" font-size="62" fill="#161616">delay, not the</text>
  <text x="80" y="319" font-family="Georgia, serif" font-weight="700" font-size="62" fill="#ef4b35">whole business.</text>
  <text x="80" y="370" font-family="Arial, sans-serif" font-size="22" fill="#4b4b4b">delay → input → approval → owner + clock → qualified movement</text>
  <g font-family="monospace" font-size="18" font-weight="700" text-anchor="middle">
    <rect x="80" y="458" width="210" height="82" fill="#161616"/><text x="185" y="493" fill="#f4efe5">01 DELAY</text><text x="185" y="520" fill="#f4efe5" font-size="13">where signals wait</text>
    <rect x="310" y="458" width="210" height="82" fill="#ef4b35"/><text x="415" y="493" fill="#fff">02 INPUT</text><text x="415" y="520" fill="#fff" font-size="13">evidence</text>
    <rect x="540" y="458" width="210" height="82" fill="#13a47b"/><text x="645" y="493" fill="#fff">03 ROUTE</text><text x="645" y="520" fill="#fff" font-size="13">owner + clock</text>
    <rect x="770" y="458" width="350" height="82" fill="#2d67c8"/><text x="945" y="493" fill="#fff">04 OUTCOME</text><text x="945" y="520" fill="#fff" font-size="13">qualified movement</text>
  </g>
  <text x="80" y="591" font-family="monospace" font-size="15" letter-spacing="2" fill="#5b5b5b">PRACTICAL OPERATING MODEL · ISSUE 32</text>
</svg>
